<svg width="536" height="513" viewBox="0 0 536 513" fill="none" xmlns="http://www.w3.org/2000/svg">
<path d="M480.7 312.946H247.703C245.842 312.944 244.059 312.204 242.743 310.888C241.427 309.573 240.687 307.79 240.685 305.929V227.344C240.687 225.483 241.427 223.7 242.743 222.384C244.059 221.069 245.842 220.329 247.703 220.327H480.7C482.56 220.329 484.344 221.069 485.66 222.384C486.976 223.7 487.716 225.483 487.718 227.344V305.929C487.716 307.79 486.976 309.573 485.66 310.888C484.344 312.204 482.56 312.944 480.7 312.946Z" fill="#F1F1F1"/>
<path d="M338.937 241.377H277.178V248.393H338.937V241.377Z" fill="#40BAFF"/>
<path d="M420.345 249.797C422.671 249.797 424.556 247.912 424.556 245.587C424.556 243.262 422.671 241.377 420.345 241.377C418.02 241.377 416.135 243.262 416.135 245.587C416.135 247.912 418.02 249.797 420.345 249.797Z" fill="#40BAFF"/>
<path d="M434.381 249.797C436.707 249.797 438.592 247.912 438.592 245.587C438.592 243.262 436.707 241.377 434.381 241.377C432.056 241.377 430.17 243.262 430.17 245.587C430.17 247.912 432.056 249.797 434.381 249.797Z" fill="#40BAFF"/>
<path d="M448.417 249.797C450.743 249.797 452.628 247.912 452.628 245.587C452.628 243.262 450.743 241.377 448.417 241.377C446.092 241.377 444.206 243.262 444.206 245.587C444.206 247.912 446.092 249.797 448.417 249.797Z" fill="#40BAFF"/>
<path d="M480.7 412.582H247.703C245.842 412.579 244.059 411.839 242.743 410.524C241.427 409.209 240.687 407.425 240.685 405.565V326.979C240.687 325.119 241.427 323.335 242.743 322.02C244.059 320.705 245.842 319.965 247.703 319.962H480.7C482.56 319.965 484.344 320.705 485.66 322.02C486.976 323.335 487.716 325.119 487.718 326.979V405.565C487.716 407.425 486.976 409.209 485.66 410.524C484.344 411.839 482.56 412.579 480.7 412.582Z" fill="#F1F1F1"/>
<path d="M338.937 341.012H277.178V348.029H338.937V341.012Z" fill="#40BAFF"/>
<path d="M420.345 349.432C422.671 349.432 424.556 347.547 424.556 345.222C424.556 342.897 422.671 341.012 420.345 341.012C418.02 341.012 416.135 342.897 416.135 345.222C416.135 347.547 418.02 349.432 420.345 349.432Z" fill="#40BAFF"/>
<path d="M434.381 349.432C436.707 349.432 438.592 347.547 438.592 345.222C438.592 342.897 436.707 341.012 434.381 341.012C432.056 341.012 430.17 342.897 430.17 345.222C430.17 347.547 432.056 349.432 434.381 349.432Z" fill="#40BAFF"/>
<path d="M448.417 349.432C450.743 349.432 452.628 347.547 452.628 345.222C452.628 342.897 450.743 341.012 448.417 341.012C446.092 341.012 444.206 342.897 444.206 345.222C444.206 347.547 446.092 349.432 448.417 349.432Z" fill="#40BAFF"/>
<path d="M480.7 512.217H247.703C245.842 512.215 244.059 511.475 242.743 510.16C241.427 508.844 240.687 507.061 240.685 505.201V426.615C240.687 424.754 241.427 422.971 242.743 421.656C244.059 420.34 245.842 419.6 247.703 419.598H480.7C482.56 419.6 484.344 420.34 485.66 421.656C486.976 422.971 487.716 424.754 487.718 426.615V505.201C487.716 507.061 486.976 508.844 485.66 510.16C484.344 511.475 482.56 512.215 480.7 512.217Z" fill="#F1F1F1"/>
<path d="M338.937 440.648H277.178V447.664H338.937V440.648Z" fill="#40BAFF"/>
<path d="M420.345 449.068C422.671 449.068 424.556 447.183 424.556 444.858C424.556 442.533 422.671 440.648 420.345 440.648C418.02 440.648 416.135 442.533 416.135 444.858C416.135 447.183 418.02 449.068 420.345 449.068Z" fill="#40BAFF"/>
<path d="M434.381 449.068C436.707 449.068 438.592 447.183 438.592 444.858C438.592 442.533 436.707 440.648 434.381 440.648C432.056 440.648 430.17 442.533 430.17 444.858C430.17 447.183 432.056 449.068 434.381 449.068Z" fill="#40BAFF"/>
<path d="M448.417 449.068C450.743 449.068 452.628 447.183 452.628 444.858C452.628 442.533 450.743 440.648 448.417 440.648C446.092 440.648 444.206 442.533 444.206 444.858C444.206 447.183 446.092 449.068 448.417 449.068Z" fill="#40BAFF"/>
<path d="M392.863 143.589L392.605 143.398L392.599 143.394C392.266 143.147 391.889 142.968 391.487 142.867C391.086 142.766 390.668 142.745 390.259 142.806C389.849 142.866 389.456 143.007 389.1 143.219C388.745 143.432 388.435 143.712 388.188 144.045L335.744 214.643H329.974V213.287C329.974 212.953 329.841 212.632 329.605 212.396C329.368 212.159 329.047 212.026 328.713 212.026H325.271C324.936 212.026 324.615 212.159 324.379 212.396C324.142 212.632 324.01 212.953 324.01 213.287V214.643H322.017V213.287C322.017 212.953 321.884 212.632 321.648 212.396C321.411 212.159 321.091 212.026 320.756 212.026H317.314C316.979 212.026 316.658 212.159 316.422 212.396C316.186 212.632 316.053 212.953 316.053 213.287V214.643H314.067V213.287C314.067 212.953 313.934 212.632 313.697 212.396C313.461 212.159 313.14 212.026 312.806 212.026H309.363C309.029 212.026 308.708 212.159 308.472 212.396C308.235 212.632 308.102 212.953 308.102 213.287V214.643H306.11V213.287C306.11 212.953 305.977 212.632 305.741 212.396C305.504 212.159 305.183 212.026 304.849 212.026H301.406C301.072 212.026 300.751 212.159 300.515 212.396C300.278 212.632 300.145 212.953 300.145 213.287V214.643H298.159V213.287C298.159 212.953 298.027 212.632 297.79 212.396C297.554 212.159 297.233 212.026 296.898 212.026H293.456C293.29 212.026 293.126 212.059 292.973 212.122C292.82 212.186 292.681 212.279 292.564 212.396C292.447 212.513 292.354 212.652 292.291 212.805C292.228 212.958 292.195 213.122 292.195 213.287V214.643H290.203V213.287C290.203 212.953 290.07 212.632 289.833 212.396C289.597 212.159 289.276 212.026 288.942 212.026H285.499C285.165 212.026 284.844 212.159 284.608 212.396C284.371 212.632 284.238 212.953 284.238 213.287V214.643H282.246V213.287C282.246 212.953 282.113 212.632 281.876 212.396C281.64 212.159 281.319 212.026 280.985 212.026H277.542C277.208 212.026 276.887 212.159 276.651 212.396C276.414 212.632 276.281 212.953 276.281 213.287V214.643H274.295V213.287C274.295 212.953 274.163 212.632 273.926 212.396C273.69 212.159 273.369 212.026 273.034 212.026H269.592C269.257 212.026 268.937 212.159 268.7 212.396C268.464 212.632 268.331 212.953 268.331 213.287V214.643H266.338V213.287C266.338 212.953 266.206 212.632 265.969 212.396C265.733 212.159 265.412 212.026 265.078 212.026H261.635C261.301 212.026 260.98 212.159 260.743 212.396C260.507 212.632 260.374 212.953 260.374 213.287V214.643H258.388V213.287C258.388 212.953 258.255 212.632 258.019 212.396C257.782 212.159 257.462 212.026 257.127 212.026H253.685C253.35 212.026 253.03 212.159 252.793 212.396C252.557 212.632 252.424 212.953 252.424 213.287V214.643H249.927C249.513 214.643 249.103 214.724 248.721 214.882C248.338 215.041 247.991 215.273 247.698 215.566C247.405 215.858 247.173 216.206 247.014 216.588C246.856 216.971 246.775 217.38 246.775 217.794V220.801C246.775 221.215 246.856 221.625 247.014 222.007C247.173 222.39 247.405 222.737 247.698 223.03C247.991 223.323 248.338 223.555 248.721 223.713C249.103 223.872 249.513 223.953 249.927 223.953H335.22C336.301 223.953 337.348 223.581 338.186 222.899C339.023 222.217 339.601 221.267 339.82 220.21L339.852 220.234L393.509 148.004L393.514 147.998C394.012 147.327 394.224 146.485 394.102 145.658C393.979 144.832 393.534 144.087 392.863 143.589Z" fill="#3F3D56"/>
<path d="M61.4187 485.446L72.0132 490.867L97.9667 452.59L82.331 444.59L61.4187 485.446Z" fill="#FFB7B7"/>
<path d="M60.4861 480.606L81.3507 491.281L81.3516 491.281C84.8778 493.086 87.5426 496.217 88.7599 499.986C89.9773 503.755 89.6474 507.853 87.8429 511.378L87.6218 511.81L53.4606 494.332L60.4861 480.606Z" fill="#2E2C49"/>
<path d="M183.78 500.276H195.681L201.343 454.38H183.778L183.78 500.276Z" fill="#FFB7B7"/>
<path d="M180.744 496.391L204.182 496.39H204.183C208.144 496.391 211.943 497.964 214.744 500.764C217.545 503.565 219.119 507.363 219.119 511.324V511.809L180.745 511.81L180.744 496.391Z" fill="#2E2C49"/>
<path d="M128.111 125.915C128.111 125.915 120.141 119.81 120.141 134.722L118.883 183.998L132.934 230.548L141.114 215.451L137.758 182.74L128.111 125.915Z" fill="#2E2C49"/>
<path d="M213.363 260.694C213.363 260.694 222.604 305.692 210.898 342.62L204.429 484.605L180.709 482.757L172.391 377.423L164.382 325.065L147.747 372.804L92.9136 473.825L67.6532 454.114C67.6532 454.114 95.6458 377.749 116.326 361.716L126.697 243.611L213.363 260.694Z" fill="#2E2C49"/>
<path d="M208.977 51.6825C216.142 38.5785 211.325 22.1485 198.219 14.9852C185.112 7.82183 168.679 12.6378 161.514 25.7419C154.349 38.8459 159.166 55.2759 172.273 62.4392C185.38 69.6025 201.813 64.7866 208.977 51.6825Z" fill="#FFB7B7"/>
<path d="M183.332 44.4476C186.574 44.8694 189.02 41.5528 190.154 38.487C191.288 35.4212 192.153 31.852 194.971 30.1959C198.823 27.9334 203.75 30.6546 208.154 29.9081C213.127 29.0651 216.361 23.7953 216.614 18.7583C216.868 13.7213 214.863 8.87675 212.896 4.23266L212.209 10.0042C212.301 8.04808 211.889 6.10112 211.013 4.34955C210.137 2.59797 208.826 1.10037 207.206 0L208.091 8.46884C207.903 7.30044 207.486 6.18074 206.863 5.17398C206.241 4.16723 205.426 3.29325 204.465 2.60221C203.504 1.91116 202.416 1.41666 201.264 1.14707C200.111 0.87749 198.917 0.838134 197.749 1.03126L197.888 6.07732C192.144 5.3944 186.349 4.71052 180.588 5.2308C174.827 5.75108 169.025 7.57357 164.659 11.3671C158.127 17.0416 155.741 26.3853 156.542 34.9996C157.343 43.6139 160.9 51.7063 164.607 59.5237C165.539 61.4906 166.829 63.7101 168.992 63.9606C170.935 64.1858 172.713 62.5617 173.317 60.7016C173.783 58.7929 173.765 56.7983 173.265 54.8984C172.718 51.9948 172.029 49.027 172.543 46.1175C173.057 43.208 175.15 40.3329 178.084 39.9763C181.017 39.6197 184.019 42.9722 182.609 45.5685L183.332 44.4476Z" fill="#2E2C49"/>
<path d="M215.036 272.728L124.756 266.904L131.551 238.758L214.065 257.199L215.036 272.728Z" fill="#CBCBCB"/>
<path d="M159.36 75.5901L165.023 67.7299C165.023 67.7299 171.352 69.8804 188.302 78.316L189.5 85.6804L218.923 266.614L165.442 264.308L150.878 263.998L146.112 253.317L140.235 263.772L126.013 263.469L111.542 255.082L125.803 211.467L130.417 171.626L123.287 134.093C123.287 134.093 114.314 99.626 148.873 81.042L159.36 75.5901Z" fill="#2E2C49"/>
<path d="M279.901 212.558C278.592 212.891 277.225 212.933 275.898 212.68C274.57 212.428 273.314 211.887 272.218 211.097C271.122 210.307 270.213 209.286 269.554 208.106C268.896 206.926 268.504 205.616 268.406 204.269L236.677 195.772L249.441 184.441L277.614 194.247C279.889 194.233 282.091 195.054 283.801 196.554C285.511 198.055 286.611 200.13 286.893 202.387C287.175 204.644 286.619 206.926 285.33 208.801C284.042 210.676 282.11 212.012 279.901 212.558V212.558Z" fill="#FFB7B7"/>
<path d="M265.691 207.761C265.023 208.125 264.287 208.343 263.53 208.404C262.772 208.464 262.011 208.364 261.295 208.11L209.099 188.304C196.366 183.791 185.705 174.807 179.101 163.024L157.334 124.203C155.806 122.497 154.629 120.507 153.871 118.346C153.113 116.185 152.788 113.896 152.916 111.609C153.044 109.322 153.621 107.083 154.615 105.02C155.609 102.957 157.001 101.11 158.71 99.585C160.419 98.06 162.412 96.8868 164.574 96.1327C166.737 95.3786 169.028 95.0583 171.314 95.1902C173.601 95.322 175.84 95.9035 177.901 96.9012C179.963 97.8989 181.808 99.2933 183.33 101.005L221.004 160.706L268.417 188.497C269.346 189.107 270.066 189.987 270.478 191.019C270.891 192.051 270.977 193.184 270.724 194.266L268.366 204.255C268.113 205.326 267.539 206.295 266.721 207.032C266.408 207.315 266.062 207.56 265.691 207.761Z" fill="#2E2C49"/>
<path d="M534.791 508H0.566516C0.416266 508 0.27217 508.211 0.165928 508.586C0.0596859 508.961 0 509.47 0 510C0 510.53 0.0596859 511.039 0.165928 511.414C0.27217 511.789 0.416266 512 0.566516 512H534.791C534.941 512 535.085 511.789 535.191 511.414C535.298 511.039 535.357 510.53 535.357 510C535.357 509.47 535.298 508.961 535.191 508.586C535.085 508.211 534.941 508 534.791 508Z" fill="#CBCBCB"/>
</svg>
